<svg width="15" height="15" viewBox="0 0 15 15" fill="none" xmlns="http://www.w3.org/2000/svg">
<path d="M6.79676 10.5469C6.79676 10.7334 6.87084 10.9122 7.0027 11.0441C7.13456 11.1759 7.3134 11.25 7.49988 11.25C7.68636 11.25 7.86521 11.1759 7.99707 11.0441C8.12893 10.9122 8.20301 10.7334 8.20301 10.5469C8.20301 10.3604 8.12893 10.1816 7.99707 10.0497C7.86521 9.91783 7.68636 9.84375 7.49988 9.84375C7.3134 9.84375 7.13456 9.91783 7.0027 10.0497C6.87084 10.1816 6.79676 10.3604 6.79676 10.5469ZM7.03113 6.09375V8.78906C7.03113 8.85352 7.08387 8.90625 7.14832 8.90625H7.85145C7.9159 8.90625 7.96863 8.85352 7.96863 8.78906V6.09375C7.96863 6.0293 7.9159 5.97656 7.85145 5.97656H7.14832C7.08387 5.97656 7.03113 6.0293 7.03113 6.09375ZM13.9994 12.5391L7.90564 1.99219C7.81482 1.83545 7.65809 1.75781 7.49988 1.75781C7.34168 1.75781 7.18348 1.83545 7.09412 1.99219L1.00037 12.5391C0.820195 12.8525 1.04578 13.2422 1.40613 13.2422H13.5936C13.954 13.2422 14.1796 12.8525 13.9994 12.5391ZM2.52234 12.1304L7.49988 3.51416L12.4774 12.1304H2.52234Z" fill="#FF9A4F"/>
</svg>
